<svg width="26" height="26" viewBox="0 0 26 26" fill="none" xmlns="http://www.w3.org/2000/svg">
<path d="M21.6684 13C21.6684 9.39453 19.4645 6.30703 16.3363 5.00195L15.5035 7.00273C17.8496 7.98281 19.5 10.2984 19.5 13C19.5 15.7066 17.8496 18.0172 15.4984 18.9973L16.3313 20.998C19.4645 19.693 21.6684 16.6055 21.6684 13ZM17.3316 13C17.3316 11.1973 16.2297 9.65352 14.6656 9.00352L13.8328 11.0043C14.6148 11.3293 15.1633 12.1012 15.1633 13.0051C15.1633 13.9039 14.6148 14.6758 13.8328 15.0059L14.6656 17.0066C16.2297 16.3465 17.3316 14.8027 17.3316 13ZM18.002 1.00039L17.1641 3.00117C21.0793 4.63125 23.8316 8.49062 23.8316 13C23.8316 17.5043 21.0793 21.3687 17.1641 22.9988L17.9969 24.9996C22.6992 23.0395 26 18.4082 26 13C26 7.5918 22.6992 2.96055 18.002 1.00039ZM0 7.58164V18.4133H4.33164L11.9184 26V0L4.33164 7.58164H0Z" fill="white"/>
</svg>
